<svg version="1.1" id="Layer_1" xmlns="http://www.w3.org/2000/svg" xmlns:xlink="http://www.w3.org/1999/xlink" x="0px" y="0px"
	 width="100%" viewBox="0 0 1175 700" enable-background="new 0 0 1175 700" xml:space="preserve">
<path fill="#FFFFFF" opacity="1.000000" stroke="none" 
	d="
M731.000000,701.000000 
	C487.333344,701.000000 244.166702,701.000000 1.000033,701.000000 
	C1.000022,467.666687 1.000022,234.333389 1.000011,1.000064 
	C392.666626,1.000043 784.333252,1.000043 1176.000000,1.000021 
	C1176.000000,234.333267 1176.000000,467.666534 1176.000000,700.999878 
	C1027.833374,701.000000 879.666687,701.000000 731.000000,701.000000 
M442.500061,24.161600 
	C302.029114,24.161600 161.558151,24.161600 20.788624,24.161600 
	C20.788624,178.907776 20.788624,333.325195 20.788624,488.265015 
	C198.670334,488.265015 376.403229,488.265015 554.693848,488.265015 
	C554.693848,552.501648 554.693848,616.218140 554.693848,680.169861 
	C557.237610,680.169861 559.227722,680.169800 561.217773,680.169800 
	C721.214905,680.169800 881.212097,680.184021 1041.209229,680.122131 
	C1048.185181,680.119446 1055.193726,679.729614 1062.131226,678.993347 
	C1105.225342,674.419678 1139.211060,644.611938 1149.030151,602.462036 
	C1155.077271,576.503784 1154.156372,550.174194 1151.220093,523.966736 
	C1149.115845,505.185242 1141.798218,488.218964 1128.676270,474.404938 
	C1122.229126,467.617828 1114.551025,462.000000 1107.486816,455.902100 
	C1107.210938,456.150970 1107.431152,455.887756 1107.707764,455.715485 
	C1108.412476,455.276581 1109.130371,454.855743 1109.863892,454.467133 
	C1137.177734,439.998535 1152.622192,417.001617 1156.997559,386.812683 
	C1160.763184,360.831024 1160.219727,334.571411 1157.588623,308.561096 
	C1154.963013,282.605621 1144.383911,259.833740 1124.384766,242.337112 
	C1103.482422,224.050415 1078.452271,216.578583 1051.170288,216.553482 
	C904.672974,216.418671 758.175537,216.489777 611.678162,216.489777 
	C609.783691,216.489777 607.889221,216.489792 605.908386,216.489792 
	C608.799988,209.075974 612.054016,202.485535 613.964233,195.526215 
	C621.505676,168.051971 620.659302,140.027832 616.948242,112.250526 
	C610.347778,62.845978 571.799561,27.545006 521.939087,25.132198 
	C495.838257,23.869143 469.649292,24.426424 442.500061,24.161600 
z"/>
<path fill="#010101" opacity="1.000000" stroke="none" 
	d="
M443.000092,24.161600 
	C469.649292,24.426424 495.838257,23.869143 521.939087,25.132198 
	C571.799561,27.545006 610.347778,62.845978 616.948242,112.250526 
	C620.659302,140.027832 621.505676,168.051971 613.964233,195.526215 
	C612.054016,202.485535 608.799988,209.075974 605.908386,216.489792 
	C607.889221,216.489792 609.783691,216.489777 611.678162,216.489777 
	C758.175537,216.489777 904.672974,216.418671 1051.170288,216.553482 
	C1078.452271,216.578583 1103.482422,224.050415 1124.384766,242.337112 
	C1144.383911,259.833740 1154.963013,282.605621 1157.588623,308.561096 
	C1160.219727,334.571411 1160.763184,360.831024 1156.997559,386.812683 
	C1152.622192,417.001617 1137.177734,439.998535 1109.863892,454.467133 
	C1109.130371,454.855743 1108.412476,455.276581 1107.707764,455.715485 
	C1107.431152,455.887756 1107.210938,456.150970 1107.486816,455.902100 
	C1114.551025,462.000000 1122.229126,467.617828 1128.676270,474.404938 
	C1141.798218,488.218964 1149.115845,505.185242 1151.220093,523.966736 
	C1154.156372,550.174194 1155.077271,576.503784 1149.030151,602.462036 
	C1139.211060,644.611938 1105.225342,674.419678 1062.131226,678.993347 
	C1055.193726,679.729614 1048.185181,680.119446 1041.209229,680.122131 
	C881.212097,680.184021 721.214905,680.169800 561.217773,680.169800 
	C559.227722,680.169800 557.237610,680.169861 554.693848,680.169861 
	C554.693848,616.218140 554.693848,552.501648 554.693848,488.265015 
	C376.403229,488.265015 198.670334,488.265015 20.788624,488.265015 
	C20.788624,333.325195 20.788624,178.907776 20.788624,24.161600 
	C161.558151,24.161600 302.029114,24.161600 443.000092,24.161600 
M1000.500000,283.001434 
	C697.640137,283.001434 394.780273,283.001434 92.154785,283.001434 
	C92.154785,329.666107 92.154785,375.585999 92.154785,421.830536 
	C94.437782,421.830536 96.408234,421.830566 98.378685,421.830566 
	C411.668396,421.830566 724.958069,421.830536 1038.247803,421.830505 
	C1039.414307,421.830505 1040.581421,421.854706 1041.747192,421.826447 
	C1071.527588,421.104523 1086.906616,406.607147 1088.062012,377.235931 
	C1088.742554,359.934784 1088.838745,342.580475 1088.381104,325.271667 
	C1087.643066,297.351532 1072.415527,283.001923 1044.494019,283.001495 
	C1030.162720,283.001251 1015.831360,283.001434 1000.500000,283.001434 
M706.500061,488.168091 
	C679.601379,488.168091 652.702637,488.168091 625.916809,488.168091 
	C625.916809,530.471375 625.916809,572.010010 625.916809,613.831970 
	C628.134766,613.831970 629.946533,613.831970 631.758301,613.831970 
	C678.411621,613.831970 725.064941,613.831970 771.718262,613.831970 
	C861.359253,613.831970 951.000244,613.840454 1040.641235,613.825989 
	C1063.121582,613.822388 1079.663574,601.553345 1081.414307,580.308350 
	C1083.017456,560.854553 1082.439453,541.008850 1080.585938,521.548889 
	C1079.082275,505.761353 1068.966309,494.878693 1053.086182,490.945129 
	C1046.375610,489.282928 1039.312012,488.291870 1032.406982,488.281555 
	C924.104858,488.119720 815.802429,488.168091 706.500061,488.168091 
M418.500061,90.839005 
	C309.735138,90.839005 200.970200,90.839005 92.062134,90.839005 
	C92.062134,132.900146 92.062134,174.481659 92.062134,216.488907 
	C94.231155,216.488907 96.183182,216.488907 98.135216,216.488907 
	C228.953140,216.488907 359.771057,216.493057 490.588989,216.473572 
	C495.747711,216.472794 500.911804,216.357971 506.064148,216.106781 
	C531.625488,214.860718 546.773926,200.165070 548.028931,174.603470 
	C548.730530,160.311844 548.816589,145.954590 548.387756,131.650650 
	C547.626221,106.245621 532.999023,91.518456 507.484314,91.048187 
	C478.164948,90.507797 448.828918,90.869270 418.500061,90.839005 
z"/>
<path fill="#FFFFFF" opacity="1.000000" stroke="none" 
	d="
M1001.000000,283.001434 
	C1015.831360,283.001434 1030.162720,283.001251 1044.494019,283.001495 
	C1072.415527,283.001923 1087.643066,297.351532 1088.381104,325.271667 
	C1088.838745,342.580475 1088.742554,359.934784 1088.062012,377.235931 
	C1086.906616,406.607147 1071.527588,421.104523 1041.747192,421.826447 
	C1040.581421,421.854706 1039.414307,421.830505 1038.247803,421.830505 
	C724.958069,421.830536 411.668396,421.830566 98.378685,421.830566 
	C96.408234,421.830566 94.437782,421.830536 92.154785,421.830536 
	C92.154785,375.585999 92.154785,329.666107 92.154785,283.001434 
	C394.780273,283.001434 697.640137,283.001434 1001.000000,283.001434 
z"/>
<path fill="#FEFEFE" opacity="1.000000" stroke="none" 
	d="
M707.000122,488.168091 
	C815.802429,488.168091 924.104858,488.119720 1032.406982,488.281555 
	C1039.312012,488.291870 1046.375610,489.282928 1053.086182,490.945129 
	C1068.966309,494.878693 1079.082275,505.761353 1080.585938,521.548889 
	C1082.439453,541.008850 1083.017456,560.854553 1081.414307,580.308350 
	C1079.663574,601.553345 1063.121582,613.822388 1040.641235,613.825989 
	C951.000244,613.840454 861.359253,613.831970 771.718262,613.831970 
	C725.064941,613.831970 678.411621,613.831970 631.758301,613.831970 
	C629.946533,613.831970 628.134766,613.831970 625.916809,613.831970 
	C625.916809,572.010010 625.916809,530.471375 625.916809,488.168091 
	C652.702637,488.168091 679.601379,488.168091 707.000122,488.168091 
z"/>
<path fill="#FFFFFF" opacity="1.000000" stroke="none" 
	d="
M419.000092,90.839005 
	C448.828918,90.869270 478.164948,90.507797 507.484314,91.048187 
	C532.999023,91.518456 547.626221,106.245621 548.387756,131.650650 
	C548.816589,145.954590 548.730530,160.311844 548.028931,174.603470 
	C546.773926,200.165070 531.625488,214.860718 506.064148,216.106781 
	C500.911804,216.357971 495.747711,216.472794 490.588989,216.473572 
	C359.771057,216.493057 228.953140,216.488907 98.135216,216.488907 
	C96.183182,216.488907 94.231155,216.488907 92.062134,216.488907 
	C92.062134,174.481659 92.062134,132.900146 92.062134,90.839005 
	C200.970200,90.839005 309.735138,90.839005 419.000092,90.839005 
z"/>
</svg>