<svg xmlns="http://www.w3.org/2000/svg" xmlns:xlink="http://www.w3.org/1999/xlink" width="1080" zoomAndPan="magnify" viewBox="0 0 810 809.999993" height="1080" preserveAspectRatio="xMidYMid meet" version="1.0"><defs><clipPath id="fa6a7f6c00"><path d="M 2.140625 1 L 807.640625 1 L 807.640625 808 L 2.140625 808 Z M 2.140625 1 " clip-rule="nonzero"/></clipPath></defs><g clip-path="url(#fa6a7f6c00)"><path fill="#23303d" d="M 405.070312 198.089844 C 290.71875 198.089844 198.480469 290.324219 198.480469 404.667969 C 198.480469 519.015625 290.71875 611.246094 405.070312 611.246094 C 519.421875 611.246094 611.660156 519.015625 611.660156 404.667969 C 611.660156 290.324219 519.421875 198.089844 405.070312 198.089844 Z M 405.070312 538.972656 C 331.171875 538.972656 270.757812 478.742188 270.757812 404.667969 C 270.757812 330.59375 330.992188 270.367188 405.070312 270.367188 C 479.144531 270.367188 539.378906 330.59375 539.378906 404.667969 C 539.378906 478.742188 478.964844 538.972656 405.070312 538.972656 Z M 668.296875 189.640625 C 668.296875 216.429688 646.71875 237.824219 620.109375 237.824219 C 593.320312 237.824219 571.921875 216.25 571.921875 189.640625 C 571.921875 163.03125 593.5 141.457031 620.109375 141.457031 C 646.71875 141.457031 668.296875 163.03125 668.296875 189.640625 Z M 805.121094 238.542969 C 802.066406 174 787.320312 116.828125 740.035156 69.722656 C 692.925781 22.617188 635.75 7.875 571.203125 4.636719 C 504.679688 0.863281 305.28125 0.863281 238.753906 4.636719 C 174.386719 7.695312 117.210938 22.4375 69.921875 69.542969 C 22.636719 116.648438 8.074219 173.820312 4.835938 238.363281 C 1.058594 304.886719 1.058594 504.273438 4.835938 570.792969 C 7.894531 635.335938 22.636719 692.511719 69.921875 739.617188 C 117.210938 786.71875 174.207031 801.464844 238.753906 804.699219 C 305.28125 808.476562 504.679688 808.476562 571.203125 804.699219 C 635.75 801.644531 692.925781 786.898438 740.035156 739.617188 C 787.140625 692.511719 801.886719 635.335938 805.121094 570.792969 C 808.898438 504.273438 808.898438 305.066406 805.121094 238.542969 Z M 719.179688 642.167969 C 705.152344 677.410156 678.003906 704.558594 642.582031 718.761719 C 589.542969 739.796875 463.683594 734.941406 405.070312 734.941406 C 346.453125 734.941406 220.414062 739.617188 167.554688 718.761719 C 132.3125 704.738281 105.164062 677.589844 90.960938 642.167969 C 69.921875 589.132812 74.777344 463.28125 74.777344 404.667969 C 74.777344 346.058594 70.101562 220.023438 90.960938 167.167969 C 104.984375 131.929688 132.132812 104.78125 167.554688 90.578125 C 220.59375 69.542969 346.453125 74.394531 405.070312 74.394531 C 463.683594 74.394531 589.722656 69.722656 642.582031 90.578125 C 677.824219 104.601562 704.972656 131.75 719.179688 167.167969 C 740.214844 220.207031 735.359375 346.058594 735.359375 404.667969 C 735.359375 463.28125 740.214844 589.3125 719.179688 642.167969 Z M 719.179688 642.167969 " fill-opacity="1" fill-rule="nonzero"/></g></svg>