<svg xmlns="http://www.w3.org/2000/svg" xmlns:xlink="http://www.w3.org/1999/xlink" width="1080" zoomAndPan="magnify" viewBox="0 0 810 809.999993" height="1080" preserveAspectRatio="xMidYMid meet" version="1.0"><path fill="#23303d" d="M 506.25 0 C 478.246094 0 455.625 22.625 455.625 50.625 C 455.625 78.628906 478.246094 101.25 506.25 101.25 L 637.082031 101.25 L 318.621094 419.871094 C 298.84375 439.644531 298.84375 471.761719 318.621094 491.535156 C 338.394531 511.3125 370.511719 511.3125 390.285156 491.535156 L 708.75 172.917969 L 708.75 303.75 C 708.75 331.753906 731.371094 354.375 759.375 354.375 C 787.375 354.375 810 331.753906 810 303.75 L 810 50.625 C 810 22.625 787.375 0 759.375 0 Z M 126.5625 50.625 C 56.636719 50.625 0 107.261719 0 177.1875 L 0 683.4375 C 0 753.363281 56.636719 810 126.5625 810 L 632.8125 810 C 702.738281 810 759.375 753.363281 759.375 683.4375 L 759.375 506.25 C 759.375 478.246094 736.75 455.625 708.75 455.625 C 680.746094 455.625 658.125 478.246094 658.125 506.25 L 658.125 683.4375 C 658.125 697.359375 646.734375 708.75 632.8125 708.75 L 126.5625 708.75 C 112.640625 708.75 101.25 697.359375 101.25 683.4375 L 101.25 177.1875 C 101.25 163.265625 112.640625 151.875 126.5625 151.875 L 303.75 151.875 C 331.75 151.875 354.375 129.253906 354.375 101.25 C 354.375 73.25 331.75 50.625 303.75 50.625 Z M 126.5625 50.625 " fill-opacity="1" fill-rule="nonzero"/></svg>